<?xml version="1.0" standalone="no"?>
<!DOCTYPE svg PUBLIC "-//W3C//DTD SVG 20010904//EN"
 "http://www.w3.org/TR/2001/REC-SVG-20010904/DTD/svg10.dtd">
<svg version="1.0" xmlns="http://www.w3.org/2000/svg"
 width="260.000000pt" height="260.000000pt" viewBox="0 0 260.000000 260.000000"
 preserveAspectRatio="xMidYMid meet">
<metadata>
Created by potrace 1.14, written by Peter Selinger 2001-2017
</metadata>
<g transform="translate(0.000000,260.000000) scale(0.100000,-0.100000)"
fill="#000000" stroke="none">
<path d="M306 2589 c-62 -15 -153 -68 -197 -116 -22 -24 -55 -74 -72 -111
l-32 -67 0 -990 c0 -918 1 -994 18 -1040 38 -109 142 -208 256 -245 65 -21 74
-21 1041 -18 1091 3 1012 -2 1115 76 67 51 119 122 144 199 21 63 21 76 21
1016 0 1048 1 1021 -61 1119 -42 65 -100 115 -178 152 l-66 31 -975 2 c-566 1
-991 -3 -1014 -8z m452 -952 c21 -25 252 -671 244 -679 -5 -5 -44 -8 -86 -6
l-78 3 -22 55 -22 55 -136 3 -135 3 -18 -48 c-10 -27 -22 -54 -28 -60 -14 -18
-156 -18 -163 0 -4 12 177 524 229 650 l16 37 94 0 c66 0 98 -4 105 -13z m406
-19 c8 -18 42 -126 76 -241 35 -114 65 -205 67 -203 2 1 36 108 76 237 l72
234 79 3 c44 2 83 -1 89 -7 11 -11 -188 -647 -211 -673 -12 -15 -32 -18 -107
-18 -63 0 -96 4 -103 13 -15 18 -222 669 -216 679 3 4 41 8 85 8 l80 0 13 -32z
m1071 -38 l0 -65 -167 -3 -168 -2 0 -70 0 -69 158 -3 157 -3 3 -53 c5 -81 3
-82 -169 -82 l-149 0 0 -70 0 -70 173 -2 172 -3 0 -65 0 -65 -254 -3 c-197 -2
-256 1 -263 10 -9 15 -11 648 -2 672 6 15 35 16 258 14 l251 -3 0 -65z"/>
<path d="M615 1362 c-22 -64 -41 -123 -43 -129 -3 -10 20 -13 88 -13 84 0 92
2 85 18 -4 9 -24 66 -46 126 -21 60 -40 111 -42 112 -2 2 -21 -49 -42 -114z"/>
</g>
</svg>
